M48
; DRILL file {KiCad 9.0.2} date 2025-06-25T16:42:38-0400
; FORMAT={-:-/ absolute / metric / decimal}
; #@! TF.CreationDate,2025-06-25T16:42:38-04:00
; #@! TF.GenerationSoftware,Kicad,Pcbnew,9.0.2
; #@! TF.FileFunction,Plated,1,2,PTH
FMAT,2
METRIC
; #@! TA.AperFunction,Plated,PTH,ComponentDrill
T1C0.800
; #@! TA.AperFunction,Plated,PTH,ComponentDrill
T2C1.000
; #@! TA.AperFunction,Plated,PTH,ComponentDrill
T3C1.500
%
G90
G05
T1
X97.282Y-29.972
X97.536Y-36.83
X104.902Y-29.972
X105.156Y-36.83
X107.442Y-36.83
X107.696Y-29.972
X115.062Y-36.83
X115.316Y-29.972
X117.602Y-36.83
X117.856Y-29.972
X125.222Y-36.83
X125.476Y-29.972
X127.254Y-92.71
X127.762Y-87.376
X134.874Y-92.71
X135.382Y-87.376
X137.668Y-87.376
X137.922Y-92.71
X145.288Y-87.376
X145.542Y-92.71
X147.828Y-87.376
X148.336Y-92.71
X155.448Y-87.376
X155.956Y-92.71
T2
X27.78Y-79.1
X27.78Y-96.1
X30.32Y-79.1
X30.32Y-96.1
X32.86Y-79.1
X32.86Y-96.1
X35.4Y-79.1
X35.4Y-96.1
X37.94Y-79.1
X37.94Y-96.1
X40.48Y-79.1
X40.48Y-96.1
X43.02Y-79.1
X43.02Y-96.1
T3
X36.5Y-45.5
X42.85Y-42.96
X59.15Y-40.54
X65.5Y-38.0
X82.11Y-45.5
X88.46Y-42.96
X95.11Y-65.5
X101.46Y-62.96
X130.5Y-49.0
X130.5Y-69.85
X136.85Y-46.46
X136.85Y-67.31
X152.4Y-42.54
X152.4Y-66.04
X158.75Y-40.0
X158.75Y-63.5
X173.15Y-42.5
X173.15Y-66.0
X179.5Y-39.96
X179.5Y-63.46
X193.65Y-50.54
X193.65Y-71.5
X200.0Y-48.0
X200.0Y-68.96
M30
