M48
; DRILL file {KiCad 9.0.2} date 2025-06-25T16:42:38-0400
; FORMAT={-:-/ absolute / metric / decimal}
; #@! TF.CreationDate,2025-06-25T16:42:38-04:00
; #@! TF.GenerationSoftware,Kicad,Pcbnew,9.0.2
; #@! TF.FileFunction,NonPlated,1,2,NPTH
FMAT,2
METRIC
; #@! TA.AperFunction,NonPlated,NPTH,ComponentDrill
T1C1.700
; #@! TA.AperFunction,NonPlated,NPTH,ComponentDrill
T2C4.000
%
G90
G05
T1
X35.23Y-48.04
X45.39Y-48.04
X57.88Y-43.08
X68.04Y-43.08
X80.84Y-48.04
X91.0Y-48.04
X93.84Y-68.04
X104.0Y-68.04
X129.23Y-51.54
X129.23Y-72.39
X139.39Y-51.54
X139.39Y-72.39
X151.13Y-45.08
X151.13Y-68.58
X161.29Y-45.08
X161.29Y-68.58
X171.88Y-45.04
X171.88Y-68.54
X182.04Y-45.04
X182.04Y-68.54
X192.38Y-53.08
X192.38Y-74.04
X202.54Y-53.08
X202.54Y-74.04
T2
X40.31Y-48.04
X62.96Y-43.08
X85.92Y-48.04
X98.92Y-68.04
X134.31Y-51.54
X134.31Y-72.39
X156.21Y-45.08
X156.21Y-68.58
X176.96Y-45.04
X176.96Y-68.54
X197.46Y-53.08
X197.46Y-74.04
M30
